<?xml version="1.0" encoding="UTF-8" standalone="no"?>
<!DOCTYPE svg PUBLIC "-//W3C//DTD SVG 1.1//EN" "http://www.w3.org/Graphics/SVG/1.1/DTD/svg11.dtd">
<svg width="100%" height="100%" viewBox="0 0 158 158" version="1.1" xmlns="http://www.w3.org/2000/svg" xmlns:xlink="http://www.w3.org/1999/xlink" xml:space="preserve" xmlns:serif="http://www.serif.com/" style="fill-rule:evenodd;clip-rule:evenodd;stroke-linejoin:round;stroke-miterlimit:2;">
    <g transform="matrix(1,0,0,1,-30,-422)">
        <g id="Apps-Icon" serif:id="Apps Icon">
            <g transform="matrix(0.863394,0,0,1,4.20684,110.136)">
                <path d="M85.469,433.845C85.469,427.232 79.25,421.864 71.591,421.864L43.751,421.864C36.092,421.864 29.874,427.232 29.874,433.845L29.874,457.808C29.874,464.421 36.092,469.79 43.751,469.79L71.591,469.79C79.25,469.79 85.469,464.421 85.469,457.808L85.469,433.845Z" style="fill:rgb(15,15,15);"/>
            </g>
            <g transform="matrix(0.863394,0,0,1,59.2068,110.136)">
                <path d="M85.469,433.845C85.469,427.232 79.25,421.864 71.591,421.864L43.751,421.864C36.092,421.864 29.874,427.232 29.874,433.845L29.874,457.808C29.874,464.421 36.092,469.79 43.751,469.79L71.591,469.79C79.25,469.79 85.469,464.421 85.469,457.808L85.469,433.845Z" style="fill:rgb(15,15,15);"/>
            </g>
            <g transform="matrix(0.863394,0,0,1,59.2068,55.1365)">
                <path d="M85.469,433.845C85.469,427.232 79.25,421.864 71.591,421.864L43.751,421.864C36.092,421.864 29.874,427.232 29.874,433.845L29.874,457.808C29.874,464.421 36.092,469.79 43.751,469.79L71.591,469.79C79.25,469.79 85.469,464.421 85.469,457.808L85.469,433.845Z" style="fill:rgb(15,15,15);"/>
            </g>
            <g transform="matrix(0.863394,0,0,1,59.2068,0.136453)">
                <path d="M85.469,433.845C85.469,427.232 79.25,421.864 71.591,421.864L43.751,421.864C36.092,421.864 29.874,427.232 29.874,433.845L29.874,457.808C29.874,464.421 36.092,469.79 43.751,469.79L71.591,469.79C79.25,469.79 85.469,464.421 85.469,457.808L85.469,433.845Z" style="fill:rgb(15,15,15);"/>
            </g>
            <g transform="matrix(0.863394,0,0,1,114.207,0.136453)">
                <path d="M85.469,433.845C85.469,427.232 79.25,421.864 71.591,421.864L43.751,421.864C36.092,421.864 29.874,427.232 29.874,433.845L29.874,457.808C29.874,464.421 36.092,469.79 43.751,469.79L71.591,469.79C79.25,469.79 85.469,464.421 85.469,457.808L85.469,433.845Z" style="fill:rgb(15,15,15);"/>
            </g>
            <g transform="matrix(0.863394,0,0,1,114.207,55.1365)">
                <path d="M85.469,433.845C85.469,427.232 79.25,421.864 71.591,421.864L43.751,421.864C36.092,421.864 29.874,427.232 29.874,433.845L29.874,457.808C29.874,464.421 36.092,469.79 43.751,469.79L71.591,469.79C79.25,469.79 85.469,464.421 85.469,457.808L85.469,433.845Z" style="fill:rgb(15,15,15);"/>
            </g>
            <g transform="matrix(0.863394,0,0,1,114.207,110.136)">
                <path d="M85.469,433.845C85.469,427.232 79.25,421.864 71.591,421.864L43.751,421.864C36.092,421.864 29.874,427.232 29.874,433.845L29.874,457.808C29.874,464.421 36.092,469.79 43.751,469.79L71.591,469.79C79.25,469.79 85.469,464.421 85.469,457.808L85.469,433.845Z" style="fill:rgb(15,15,15);"/>
            </g>
            <g transform="matrix(0.863394,0,0,1,4.20684,0.136453)">
                <path d="M85.469,433.845C85.469,427.232 79.25,421.864 71.591,421.864L43.751,421.864C36.092,421.864 29.874,427.232 29.874,433.845L29.874,457.808C29.874,464.421 36.092,469.79 43.751,469.79L71.591,469.79C79.25,469.79 85.469,464.421 85.469,457.808L85.469,433.845Z" style="fill:rgb(15,15,15);"/>
            </g>
            <g transform="matrix(0.863394,0,0,1,4.20684,55.1365)">
                <path d="M85.469,433.845C85.469,427.232 79.25,421.864 71.591,421.864L43.751,421.864C36.092,421.864 29.874,427.232 29.874,433.845L29.874,457.808C29.874,464.421 36.092,469.79 43.751,469.79L71.591,469.79C79.25,469.79 85.469,464.421 85.469,457.808L85.469,433.845Z" style="fill:rgb(15,15,15);"/>
            </g>
        </g>
    </g>
</svg>
